<svg xmlns="http://www.w3.org/2000/svg" width="70" height="70" viewBox="0 0 70 70">
  <g id="Group_391" data-name="Group 391" transform="translate(-1837.945 -98.15)">
    <circle id="Ellipse_32" data-name="Ellipse 32" cx="35" cy="35" r="35" transform="translate(1837.945 98.15)" style="mix-blend-mode: soft-light;isolation: isolate"/>
    <path id="Icon_awesome-camera" data-name="Icon awesome-camera" d="M47.477,11.521v23.84a4.234,4.234,0,0,1-4.451,3.973H4.451A4.234,4.234,0,0,1,0,35.361V11.521A4.234,4.234,0,0,1,4.451,7.548h8.16l1.141-2.723A4.457,4.457,0,0,1,17.915,2.25H29.552a4.457,4.457,0,0,1,4.163,2.574l1.15,2.723h8.16A4.234,4.234,0,0,1,47.477,11.521ZM34.866,23.441c0-5.48-4.989-9.933-11.127-9.933s-11.127,4.453-11.127,9.933,4.989,9.933,11.127,9.933S34.866,28.921,34.866,23.441Zm-2.967,0c0,4.015-3.663,7.284-8.16,7.284s-8.16-3.27-8.16-7.284,3.663-7.284,8.16-7.284S31.9,19.426,31.9,23.441Z" transform="translate(1849.206 112.358)" fill="#fff"/>
  </g>
</svg>
