<svg xmlns="http://www.w3.org/2000/svg" width="42" height="63.625" viewBox="0 0 42 63.625">
  <g id="selected" transform="translate(-54 -66.375)">
    <g id="Icon_ionic-ios-chatbubbles" data-name="Icon ionic-ios-chatbubbles" transform="translate(56.5 63)">
      <path id="Path_5" data-name="Path 5" d="M30.3,22.542a1.7,1.7,0,0,1,.232-.858,2.368,2.368,0,0,1,.148-.218,11.393,11.393,0,0,0,1.941-6.349A11.961,11.961,0,0,0,20.412,3.375,12.129,12.129,0,0,0,8.438,12.72a11.3,11.3,0,0,0-.26,2.4A11.927,11.927,0,0,0,20.2,27.014a14.48,14.48,0,0,0,3.319-.541c.795-.218,1.582-.506,1.786-.584a1.859,1.859,0,0,1,.654-.12,1.828,1.828,0,0,1,.71.141l3.987,1.413a.951.951,0,0,0,.274.07.56.56,0,0,0,.563-.562.9.9,0,0,0-.035-.19Z" fill="#767676"/>
      <path id="Path_6" data-name="Path 6" d="M22.395,27.6c-.253.07-.577.148-.928.225a12.977,12.977,0,0,1-2.391.316A11.927,11.927,0,0,1,7.052,16.249a13.293,13.293,0,0,1,.105-1.5c.042-.3.091-.6.162-.9.07-.316.155-.633.246-.942L7,13.4A10.464,10.464,0,0,0,3.375,21.27a10.347,10.347,0,0,0,1.744,5.766c.162.246.253.436.225.563s-.837,4.359-.837,4.359a.564.564,0,0,0,.19.541.573.573,0,0,0,.359.127.5.5,0,0,0,.2-.042L9.2,31.029a1.1,1.1,0,0,1,.844.014,11.834,11.834,0,0,0,4.268.844,11.043,11.043,0,0,0,8.445-3.874s.225-.309.485-.675C22.985,27.429,22.69,27.52,22.395,27.6Z" fill="#767676"/>
    </g>
    <text id="Chats" transform="translate(75 126)" fill="#767676" font-size="17" font-family="SegoeUI, Segoe UI"><tspan x="-20.885" y="0">Chats</tspan></text>
  </g>
</svg>
