<svg xmlns="http://www.w3.org/2000/svg" width="40" height="40.01" viewBox="0 0 40 40.01">
  <g id="Group_442" data-name="Group 442" transform="translate(-61.5 -67.497)">
    <path id="Icon_ionic-ios-settings" data-name="Icon ionic-ios-settings" d="M41.2,24.5a5.147,5.147,0,0,1,3.3-4.8,20.4,20.4,0,0,0-2.469-5.948,5.216,5.216,0,0,1-2.094.448,5.136,5.136,0,0,1-4.7-7.229A20.341,20.341,0,0,0,29.3,4.5a5.143,5.143,0,0,1-9.6,0A20.4,20.4,0,0,0,13.75,6.969a5.136,5.136,0,0,1-4.7,7.229,5.046,5.046,0,0,1-2.094-.448A20.854,20.854,0,0,0,4.5,19.708a5.146,5.146,0,0,1,.01,9.6A20.4,20.4,0,0,0,6.979,35.26a5.138,5.138,0,0,1,6.781,6.781,20.522,20.522,0,0,0,5.948,2.469,5.133,5.133,0,0,1,9.583,0,20.4,20.4,0,0,0,5.948-2.469,5.143,5.143,0,0,1,6.781-6.781,20.522,20.522,0,0,0,2.469-5.948A5.172,5.172,0,0,1,41.2,24.5Zm-16.6,8.323a8.333,8.333,0,1,1,8.333-8.333A8.331,8.331,0,0,1,24.594,32.823Z" transform="translate(57 62.997)" fill="#fcb908"/>
  </g>
</svg>
